<?xml version="1.0" encoding="utf-8"?>
<!-- Generator: Adobe Illustrator 25.2.1, SVG Export Plug-In . SVG Version: 6.00 Build 0)  -->
<svg version="1.1" id="Layer_1" xmlns="http://www.w3.org/2000/svg" xmlns:xlink="http://www.w3.org/1999/xlink" x="0px" y="0px"
	 viewBox="0 0 1080 904.4" style="enable-background:new 0 0 1080 904.4;" xml:space="preserve">
<style type="text/css">
	.st0{fill-rule:evenodd;clip-rule:evenodd;fill:#FFFFFF;}
</style>
<g>
	<g>
		<path class="st0" d="M429.4,469.9l0.2-56.3c0-0.1-0.1-0.1-0.2-0.1c-39.4-29.3-10.4-71.2,42.4-44.9c33.6,16.7,47.3,23.7,81.4,41.2
			l12.4,7l68.6-31.8c-41.5-22.5-159.8-89.1-190.6-90.9c-118-7-132.9,100.1-60.2,154.7C404.1,464.5,414,465.8,429.4,469.9z"/>
		<path class="st0" d="M622.7,498.9l-51.2,14.4l-0.4,0.2c0,0.3-0.1,0.6-0.1,0.9c-2.3,59-59.4,55.5-60.3-7.2
			c-0.5-34-0.3-67.5-0.4-101.6l-60.5-29c0.1,4.3,0.2,35.6,0.2,42c-0.2,43.2-1.9,126.7,7.5,147.8c53.4,120.4,173.8,62.3,166.6-50
			C624.1,513.8,623,501.6,622.7,498.9z"/>
		<path class="st0" d="M555.3,319.1l54.4,29.6c3-1.3,1.9-0.8,4.7-1.6c52.2-16.6,68.7,35.4,12.6,59.8c-34.4,14.9-61.6,27.2-96.9,42.1
			l-0.1,54.5l93.3-28.8c36.1-11.1,68.1-30.3,78.9-41.6c91.6-96.7-11.7-186.4-113.7-132.8C587.1,301,556.5,318.4,555.3,319.1z"/>
	</g>
	<g>
		<path class="st0" d="M315.9,343.5c19.4-6.6,29.7-27.7,23.1-47.1c-6.6-19.4-27.7-29.7-47.1-23.1c-19.4,6.6-29.7,27.7-23.1,47.1
			C275.4,339.7,296.5,350.1,315.9,343.5z"/>
		<path class="st0" d="M741.5,295c-7.4,19.1,2.1,40.6,21.2,48c19.1,7.4,40.6-2.1,48-21.2c7.4-19.1-2.1-40.6-21.2-48
			C770.4,266.4,748.9,275.9,741.5,295z"/>
	</g>
</g>
</svg>
