<svg width="100" height="100" xmlns="http://www.w3.org/2000/svg" xml:space="preserve" version="1.1">

 <g>
  <title>Layer 1</title>
  <g stroke="null" id="svg_1">
   <g stroke="null" id="svg_2">
    <path stroke="null" id="svg_3" fill="#FFFFFF" clip-rule="evenodd" fill-rule="evenodd" d="m487.12886,388.23257l0.27101,-84.45742c0,-0.15001 -0.1355,-0.15001 -0.27101,-0.15001c-53.3888,-43.95386 -14.09248,-106.80938 57.45394,-67.35592c45.52954,25.0522 64.09367,35.55312 110.30073,61.80543l16.80257,10.50092l92.95614,-47.70419c-56.2344,-33.75296 -216.53632,-133.66174 -258.27173,-136.36198c-159.8954,-10.50092 -180.08559,150.16319 -81.57376,232.07038c28.04945,23.55207 41.4644,25.50224 62.33211,31.65278z" class="st0"/>
    <path stroke="null" id="svg_4" fill="#FFFFFF" clip-rule="evenodd" fill-rule="evenodd" d="m749.05921,431.73639l-69.37834,21.6019l-0.54202,0.30003c0,0.45004 -0.1355,0.90008 -0.1355,1.35012c-3.11661,88.50777 -80.48972,83.25731 -81.70926,-10.80095c-0.67752,-51.00448 -0.40651,-101.25889 -0.54202,-152.41339l-81.98027,-43.50382c0.1355,6.45057 0.27101,53.40469 0.27101,63.00553c-0.27101,64.80569 -2.57459,190.06669 10.16284,221.71947c72.35945,180.61586 235.50696,93.45821 225.75063,-75.00659c0,-3.90034 -1.49055,-22.20195 -1.89706,-26.25231z" class="st0"/>
    <path stroke="null" id="svg_5" fill="#FFFFFF" clip-rule="evenodd" fill-rule="evenodd" d="m657.72912,162.0127l73.71449,44.4039c4.06514,-1.95017 2.57459,-1.20011 6.36872,-2.40021c70.73339,-24.90219 93.09165,53.10466 17.07358,89.70788c-46.61358,22.35196 -83.47082,40.80358 -131.30394,63.15555l-0.1355,81.75718l126.42577,-43.20379c48.91715,-16.65146 92.27862,-45.45399 106.91311,-62.40548c124.12219,-145.06274 -15.85404,-279.62456 -154.06871,-199.2175c-1.89706,1.05009 -43.36147,27.15238 -44.98752,28.20248z" class="st0"/>
   </g>
   <g stroke="null" id="svg_6">
    <path stroke="null" id="svg_7" fill="#FFFFFF" clip-rule="evenodd" fill-rule="evenodd" d="m333.33116,198.61592c26.28789,-9.90087 40.24486,-41.55365 31.30156,-70.65621c-8.9433,-29.10256 -37.53477,-44.55391 -63.82266,-34.65304c-26.28789,9.90087 -40.24486,41.55365 -31.30156,70.65621c8.9433,28.95254 37.53477,44.55391 63.82266,34.65304z" class="st0"/>
    <path stroke="null" id="svg_8" fill="#FFFFFF" clip-rule="evenodd" fill-rule="evenodd" d="m910.03865,125.85953c-10.02734,28.65252 2.8456,60.90535 28.72697,72.00632c25.88137,11.10097 55.01486,-3.15028 65.0422,-31.80279c10.02734,-28.65252 -2.8456,-60.90535 -28.72697,-72.00632c-25.88137,-11.10097 -55.01486,3.15028 -65.0422,31.80279z" class="st0"/>
   </g>
  </g>
 </g>
</svg>