<svg width="1440" height="900" xmlns="http://www.w3.org/2000/svg" xml:space="preserve" version="1.1">

 <g>
  <title>Layer 1</title>
  <g stroke="null" id="svg_1">
   <g stroke="null" id="svg_2">
    <path stroke="null" id="svg_3" fill="#FFFFFF" clip-rule="evenodd" fill-rule="evenodd" d="m323.47595,502.58931l0.38952,-110.92089c0,-0.19702 -0.19476,-0.19702 -0.38952,-0.19702c-76.73552,-57.72615 -20.25506,-140.27651 82.57833,-88.46089c65.43943,32.90193 92.12158,46.69316 158.53481,81.17124l24.15027,13.79123l133.60551,-62.65159c-80.82549,-44.32895 -311.22682,-175.54265 -371.21296,-179.08897c-229.81705,-13.79123 -258.83632,197.21458 -117.24565,304.78617c40.31536,30.93176 59.59662,33.49299 89.5897,41.57071z" class="st0"/>
    <path stroke="null" id="svg_4" fill="#FFFFFF" clip-rule="evenodd" fill-rule="evenodd" d="m699.94744,559.7244l-99.71723,28.37053l-0.77904,0.39404c0,0.59105 -0.19476,1.18211 -0.19476,1.77316c-4.47948,116.24036 -115.68757,109.34475 -117.44041,-14.18526c-0.9738,-66.98597 -0.58428,-132.98686 -0.77904,-200.16985l-117.82993,-57.13509c0.19476,8.47176 0.38952,70.13825 0.38952,82.74738c-0.38952,85.11159 -3.70044,249.62126 14.60702,291.19196c104.00195,237.20915 338.49325,122.74194 324.47051,-98.50878c0,-5.12246 -2.14236,-29.1586 -2.72664,-34.47807z" class="st0"/>
    <path stroke="null" id="svg_5" fill="#FFFFFF" clip-rule="evenodd" fill-rule="evenodd" d="m568.67905,205.48682l105.94955,58.3172c5.84281,-2.56123 3.70044,-1.57614 9.15373,-3.15228c101.66483,-32.70492 133.80027,69.74422 24.53979,117.8165c-66.99751,29.35562 -119.97229,53.58878 -188.72264,82.9444l-0.19476,107.37457l181.71128,-56.74106c70.30844,-21.86895 132.6317,-59.69632 153.66581,-81.95931c178.40035,-190.51599 -22.78694,-367.24074 -221.44236,-261.63933c-2.72664,1.37912 -62.32327,35.66018 -64.66039,37.0393z" class="st0"/>
   </g>
   <g stroke="null" id="svg_6">
    <path stroke="null" id="svg_7" fill="#FFFFFF" clip-rule="evenodd" fill-rule="evenodd" d="m102.42311,253.5591c37.78348,-13.00316 57.84378,-54.57387 44.98961,-92.79527c-12.85417,-38.22141 -53.94858,-58.51422 -91.73206,-45.51106c-37.78348,13.00316 -57.84378,54.57387 -44.98961,92.79527c12.85417,38.02439 53.94858,58.51422 91.73206,45.51106z" class="st0"/>
    <path stroke="null" id="svg_8" fill="#FFFFFF" clip-rule="evenodd" fill-rule="evenodd" d="m931.32257,158.00558c-14.41226,37.63036 4.08996,79.98913 41.28916,94.56843c37.1992,14.5793 79.07265,-4.13737 93.4849,-41.76772c14.41226,-37.63036 -4.08996,-79.98913 -41.28916,-94.56843c-37.1992,-14.5793 -79.07265,4.13737 -93.4849,41.76772z" class="st0"/>
   </g>
  </g>
 </g>
</svg>