<?xml version="1.0" encoding="utf-8"?>
<!-- Generator: Adobe Illustrator 25.2.1, SVG Export Plug-In . SVG Version: 6.00 Build 0)  -->
<svg version="1.1" id="Layer_1" xmlns="http://www.w3.org/2000/svg" xmlns:xlink="http://www.w3.org/1999/xlink" x="0px" y="0px"
	 viewBox="0 0 1080 418.2" style="enable-background:new 0 0 1080 418.2;" xml:space="preserve">
<style type="text/css">
	.st0{fill:#FFFFFF;}
	.st1{fill-rule:evenodd;clip-rule:evenodd;fill:#FFFFFF;}
</style>
<g>
	<g>
		<g>
			<path class="st0" d="M476.3,152.9c0-0.7,0.2-1.3,0.7-1.7c0.5-0.4,1.1-0.6,1.8-0.6h57.1c0.6,0,1.2,0.2,1.7,0.6
				c0.5,0.4,0.8,1,0.8,1.7v13.2c0,0.6-0.2,1.2-0.7,1.8c-0.4,0.6-1.1,0.9-1.9,0.9h-18.3v58.1c0,0.6-0.2,1.2-0.7,1.7
				c-0.5,0.5-1.1,0.8-1.8,0.8h-15.6c-0.6,0-1.2-0.2-1.7-0.7c-0.5-0.5-0.8-1.1-0.8-1.8v-58.1h-18.2c-0.7,0-1.3-0.2-1.8-0.7
				c-0.5-0.5-0.7-1.1-0.7-2V152.9z"/>
			<path class="st0" d="M552.7,153c0-0.7,0.2-1.3,0.6-1.8c0.4-0.4,1-0.7,1.8-0.7h34.3c3.6,0,7.1,0.7,10.2,2c3.2,1.4,6,3.2,8.3,5.5
				c2.4,2.3,4.2,5.1,5.6,8.2c1.4,3.1,2,6.5,2,10c0,2.4-0.3,4.7-1,6.9c-0.7,2.2-1.6,4.2-2.7,6.1c-1.2,1.9-2.6,3.6-4.2,5.1
				c-1.6,1.5-3.4,2.9-5.3,4l13.6,25.7c0.2,0.5,0.6,1.1,1,1.8c0.4,0.7,0.6,1.3,0.6,1.8c0,0.6-0.2,1-0.6,1.3c-0.4,0.3-0.9,0.5-1.5,0.5
				h-18.2c-0.6,0-1.1-0.2-1.6-0.5c-0.5-0.4-0.8-0.8-0.9-1.4l-12.9-24.2h-8.6v23.9c0,1.5-0.8,2.3-2.4,2.3H555c-0.7,0-1.3-0.2-1.7-0.6
				c-0.4-0.4-0.6-0.9-0.6-1.7V153z M594.2,176.6c0-1.1-0.2-2.1-0.6-3.2s-0.9-2-1.6-2.9c-0.7-0.9-1.6-1.6-2.5-2.2
				c-1-0.6-2.1-1-3.3-1.2c-1-0.1-1.9-0.1-2.8-0.2c-0.9-0.1-1.8-0.1-2.8-0.1h-7.3v19.5h9.8c0.6,0,1.2,0,1.7-0.1c0.5,0,1-0.1,1.6-0.2
				c1.2-0.1,2.4-0.5,3.3-1.1c1-0.6,1.8-1.3,2.5-2.2c0.7-0.9,1.2-1.8,1.5-2.9C594.1,178.8,594.2,177.7,594.2,176.6z"/>
			<path class="st0" d="M648.8,197.9c0,2.6,0.4,4.8,1.1,6.7c0.7,1.8,1.7,3.3,2.9,4.5c1.2,1.1,2.6,2,4.1,2.5c1.6,0.5,3.2,0.8,4.9,0.8
				c1.8,0,3.4-0.3,5-0.9c1.6-0.6,3-1.5,4.1-2.8c1.2-1.2,2.1-2.7,2.8-4.5c0.7-1.8,1-3.9,1-6.2v-45c0-0.6,0.2-1.2,0.7-1.6
				s1-0.7,1.8-0.7h15.5c0.8,0,1.5,0.2,1.9,0.7s0.7,1,0.7,1.6v44.7c0,6.2-0.9,11.4-2.7,15.6c-1.8,4.2-4.3,7.6-7.3,10.2
				c-3.1,2.6-6.6,4.4-10.7,5.5c-4.1,1.1-8.3,1.7-12.8,1.7s-8.7-0.6-12.8-1.7c-4.1-1.1-7.6-3-10.7-5.6c-3.1-2.6-5.5-6-7.3-10.2
				c-1.8-4.2-2.7-9.3-2.7-15.4v-44.7c0-0.6,0.2-1.1,0.6-1.6c0.4-0.5,0.9-0.7,1.5-0.7h15.9c0.5,0,1.1,0.2,1.7,0.7
				c0.6,0.4,0.9,1,0.9,1.7V197.9z"/>
			<path class="st0" d="M721.9,203.9c0.6,0.5,1.4,1.2,2.3,2c0.9,0.8,2,1.7,3.2,2.5c1.8,1.2,3.6,2.1,5.4,2.8c1.8,0.7,3.6,1,5.6,1
				c1.8,0,3.3-0.2,4.5-0.6c1.2-0.4,2.2-0.9,2.9-1.6c0.7-0.7,1.2-1.4,1.5-2.3c0.3-0.9,0.5-1.8,0.5-2.8c0-1.1-0.4-2.1-1.2-2.9
				c-0.8-0.9-1.9-1.6-3.1-2.3c-1.2-0.7-2.5-1.2-3.8-1.7c-1.3-0.5-2.4-0.9-3.4-1.2c-4.2-1.5-8-3.1-11.1-4.8c-3.2-1.7-5.8-3.6-8-5.7
				c-2.1-2.1-3.7-4.4-4.8-6.9c-1.1-2.5-1.6-5.3-1.6-8.5c0-3.3,0.7-6.3,2-9c1.3-2.7,3.2-5,5.7-6.9c2.5-1.9,5.4-3.4,8.9-4.4
				c3.5-1,7.3-1.6,11.6-1.6c3.2,0,6.3,0.4,9.3,1.1c3,0.7,5.9,1.9,8.7,3.5c1.2,0.7,2.3,1.4,3.4,2.2c1.1,0.8,2,1.5,2.8,2.2
				c0.8,0.7,1.5,1.4,1.9,2c0.5,0.6,0.7,1.2,0.7,1.6c0,0.5-0.1,0.9-0.3,1.3c-0.2,0.4-0.6,0.8-1,1.3l-8.1,8.6
				c-0.6,0.6-1.2,0.9-1.8,0.9c-0.5,0-0.9-0.1-1.4-0.4s-0.9-0.6-1.4-1.1l-0.5-0.4c-0.7-0.6-1.5-1.2-2.4-1.9c-0.9-0.6-1.8-1.2-2.8-1.7
				c-1-0.5-2-0.9-3.1-1.3c-1.1-0.3-2.2-0.5-3.3-0.5c-1.2,0-2.3,0.1-3.3,0.3c-1,0.2-1.9,0.5-2.7,0.9c-0.8,0.4-1.4,1-1.9,1.7
				c-0.5,0.7-0.7,1.5-0.7,2.5s0.2,1.8,0.7,2.6c0.5,0.7,1.2,1.4,2.2,2c1,0.6,2.2,1.2,3.7,1.8c1.5,0.5,3.2,1.1,5.1,1.8
				c3.7,1.2,7.2,2.5,10.4,3.9c3.2,1.4,5.9,3,8.2,4.8c2.3,1.9,4.1,4.1,5.4,6.7c1.3,2.6,1.9,5.7,1.9,9.4c0,3.9-0.8,7.4-2.4,10.6
				c-1.6,3.2-3.8,5.9-6.6,8.1c-2.8,2.2-6,4-9.8,5.2c-3.8,1.2-7.8,1.8-12.1,1.8c-4.1,0-8.1-0.7-12-2.2c-3.9-1.5-7.6-3.4-11-5.9
				c-1.4-1-2.6-2-3.6-3c-1-1-1.7-1.8-2.3-2.4l-0.2-0.2c0-0.1-0.1-0.1-0.1-0.1c0,0-0.1,0-0.1-0.1c0-0.1-0.1-0.1-0.1-0.1
				c0,0-0.1,0-0.1-0.1c-0.8-0.9-1.2-1.6-1.2-2.1c0-0.6,0.4-1.3,1.2-2l9.2-8.8c0.7-0.5,1.3-0.8,1.8-0.8c0.3,0,0.7,0.1,1,0.3
				C721,203.2,721.4,203.5,721.9,203.9z"/>
			<path class="st0" d="M778.6,152.9c0-0.7,0.2-1.3,0.7-1.7c0.5-0.4,1.1-0.6,1.8-0.6h57.1c0.6,0,1.2,0.2,1.7,0.6
				c0.5,0.4,0.8,1,0.8,1.7v13.2c0,0.6-0.2,1.2-0.7,1.8c-0.4,0.6-1.1,0.9-1.9,0.9h-18.3v58.1c0,0.6-0.2,1.2-0.7,1.7
				c-0.5,0.5-1.1,0.8-1.8,0.8h-15.6c-0.6,0-1.2-0.2-1.7-0.7c-0.5-0.5-0.8-1.1-0.8-1.8v-58.1h-18.2c-0.7,0-1.3-0.2-1.8-0.7
				c-0.5-0.5-0.7-1.1-0.7-2V152.9z"/>
			<path class="st0" d="M854.8,153c0-0.7,0.2-1.3,0.6-1.8c0.4-0.4,1-0.7,1.7-0.7h52.6c0.8,0,1.4,0.2,1.8,0.7
				c0.4,0.5,0.6,1.1,0.6,1.9v13.1c0,0.6-0.2,1.2-0.6,1.7c-0.4,0.5-1,0.8-1.9,0.8h-34.4v13.2h26.5c0.7,0,1.2,0.2,1.7,0.5
				c0.4,0.3,0.7,0.8,0.7,1.6v11.5c0,0.5-0.2,1-0.6,1.4c-0.4,0.5-1,0.7-1.7,0.7h-26.6v13.6H911c1.6,0,2.4,0.8,2.4,2.4v13.3
				c0,0.4-0.1,0.7-0.4,1c-0.1,1-0.9,1.5-2.2,1.5h-53.6c-0.7,0-1.3-0.2-1.7-0.6c-0.4-0.4-0.6-0.9-0.6-1.7V153z"/>
			<path class="st0" d="M996,190.1c0,3.7-0.5,7.3-1.4,10.7c-1,3.4-2.3,6.5-4.1,9.4c-1.8,2.9-3.9,5.6-6.3,7.9c-2.5,2.4-5.2,4.4-8.2,6
				c-3,1.7-6.2,2.9-9.7,3.8s-7.1,1.4-10.8,1.4h-26.2c-0.6,0-1.2-0.1-1.7-0.4c-0.5-0.3-0.7-0.9-0.7-1.8V153c0-0.7,0.2-1.3,0.6-1.8
				c0.4-0.5,1-0.7,1.8-0.7h26.2c3.7,0,7.3,0.5,10.7,1.4c3.4,0.9,6.7,2.2,9.7,3.9c3,1.7,5.7,3.7,8.2,6.1c2.5,2.4,4.6,5,6.3,8
				c1.7,2.9,3.1,6.1,4.1,9.5C995.5,182.8,996,186.3,996,190.1z M947.4,169.6v40.8h4.5c0.8,0,1.6,0,2.4-0.1c0.8-0.1,1.6-0.1,2.3-0.2
				c2.7-0.2,5.1-0.9,7.4-1.9c2.3-1.1,4.3-2.5,6-4.2s3.1-3.8,4-6.2c1-2.4,1.5-5,1.5-7.7c0-3-0.6-5.7-1.7-8.2
				c-1.1-2.5-2.6-4.7-4.5-6.5c-1.9-1.8-4.1-3.2-6.7-4.2c-2.6-1-5.3-1.5-8.2-1.5H947.4z"/>
		</g>
		<g>
			<path class="st0" d="M583.9,262c0-0.4,0.1-0.7,0.4-0.9c0.2-0.2,0.5-0.3,0.9-0.3h28.6c0.3,0,0.6,0.1,0.9,0.3
				c0.3,0.2,0.4,0.5,0.4,0.9v4.8c0,0.4-0.1,0.7-0.3,1c-0.2,0.3-0.6,0.4-1,0.4h-10.3v31.8c0,0.3-0.1,0.6-0.3,0.9
				c-0.2,0.3-0.5,0.4-0.9,0.4h-5.4c-0.3,0-0.6-0.1-0.9-0.4c-0.3-0.2-0.4-0.5-0.4-0.9v-31.8h-10.4c-0.4,0-0.7-0.1-0.9-0.3
				c-0.2-0.2-0.4-0.6-0.4-1V262z"/>
			<path class="st0" d="M647,281c0-1.9,0.2-3.7,0.7-5.5c0.5-1.8,1.2-3.4,2.1-5s2-2.9,3.2-4.2s2.7-2.4,4.2-3.2c1.5-0.9,3.2-1.6,5-2.1
				c1.8-0.5,3.6-0.7,5.5-0.7c1.9,0,3.7,0.2,5.5,0.7c1.8,0.5,3.4,1.2,5,2.1c1.5,0.9,2.9,2,4.2,3.2c1.3,1.3,2.4,2.7,3.2,4.2
				s1.6,3.2,2.1,5c0.5,1.8,0.7,3.6,0.7,5.5c0,1.9-0.2,3.8-0.7,5.5c-0.5,1.8-1.2,3.4-2.1,4.9s-2,2.9-3.2,4.2
				c-1.3,1.3-2.7,2.3-4.2,3.2c-1.5,0.9-3.2,1.6-5,2.1c-1.8,0.5-3.6,0.7-5.5,0.7c-1.9,0-3.8-0.2-5.5-0.7s-3.4-1.2-5-2.1
				c-1.5-0.9-2.9-2-4.2-3.2s-2.3-2.7-3.2-4.2c-0.9-1.5-1.6-3.2-2.1-4.9C647.3,284.7,647,282.9,647,281z M654.9,280.9
				c0,1.8,0.3,3.5,1,5.1c0.7,1.6,1.6,3,2.7,4.2c1.2,1.2,2.5,2.1,4.1,2.8c1.6,0.7,3.3,1,5.1,1c1.8,0,3.5-0.3,5.1-1
				c1.6-0.7,2.9-1.6,4.1-2.8c1.2-1.2,2.1-2.6,2.7-4.2c0.7-1.6,1-3.3,1-5.1c0-1.8-0.3-3.5-1-5.1c-0.7-1.6-1.6-3-2.7-4.2
				c-1.2-1.2-2.5-2.1-4.1-2.8c-1.6-0.7-3.3-1-5.1-1c-1.8,0-3.5,0.3-5.1,1c-1.6,0.7-2.9,1.6-4.1,2.8c-1.2,1.2-2.1,2.6-2.7,4.2
				C655.2,277.4,654.9,279.1,654.9,280.9z"/>
			<path class="st0" d="M722.8,262c0-0.3,0.1-0.6,0.3-0.8c0.2-0.2,0.5-0.4,0.9-0.4h5.5c0.1,0,0.3,0,0.4,0.1c0.2,0.1,0.3,0.1,0.4,0.2
				c0.1,0.1,0.2,0.2,0.3,0.4c0.1,0.1,0.1,0.3,0.1,0.5v16.1l15.2-16.5c0.4-0.6,0.8-0.8,1.2-0.8h7.8c0.5,0,0.7,0.1,0.7,0.3
				c0,0.1-0.1,0.3-0.3,0.6l-14.4,16.7l16.7,21.7c0.3,0.4,0.4,0.6,0.4,0.8c0,0.2-0.2,0.3-0.6,0.3h-8.3c-0.4,0-0.8-0.3-1.2-0.8
				L735.5,284l-4.6,4.8v11.1c0,0.8-0.4,1.2-1.3,1.2H724c-0.8,0-1.2-0.4-1.2-1.2V262z"/>
			<path class="st0" d="M790.8,262.1c0-0.9,0.4-1.3,1.2-1.3h26.2c0.5,0,0.8,0.1,1,0.4c0.2,0.3,0.3,0.6,0.3,1v4.8
				c0,0.3-0.1,0.6-0.3,0.9c-0.2,0.3-0.6,0.4-1,0.4h-19.3v8.2h14.9c0.4,0,0.7,0,0.9,0.2c0.2,0.2,0.3,0.5,0.3,1v4.9
				c0,0.3-0.1,0.6-0.3,0.9c-0.2,0.3-0.5,0.4-0.9,0.4h-14.9v9.9h20c0.5,0,0.8,0.1,1,0.3c0.2,0.2,0.2,0.6,0.2,1v5
				c0,0.8-0.4,1.1-1.2,1.1H792c-0.3,0-0.6-0.1-0.8-0.3s-0.4-0.5-0.4-0.9V262.1z"/>
			<path class="st0" d="M853.8,262c0-0.3,0.1-0.6,0.3-0.9c0.2-0.2,0.5-0.4,0.9-0.4h6.3c0.3,0,0.5,0.1,0.7,0.2
				c0.2,0.1,0.4,0.3,0.6,0.6c3.1,4.4,6.2,8.8,9.2,13.2c3,4.4,6.1,8.7,9.2,13.2v-26c0.1-0.3,0.2-0.6,0.4-0.8s0.5-0.3,0.8-0.3h5.2
				c0.4,0,0.7,0.1,0.9,0.3s0.4,0.5,0.4,0.9V300c0,0.7-0.4,1.1-1.3,1.1h-5.9c-0.4,0-0.8-0.2-1.1-0.7c-3.2-4.6-6.4-9.2-9.5-13.8
				c-3.2-4.6-6.3-9.2-9.5-13.9v27.3c0,0.4-0.1,0.7-0.3,0.9c-0.2,0.2-0.5,0.3-1,0.3H855c-0.4,0-0.7-0.1-0.9-0.3
				c-0.2-0.2-0.3-0.5-0.3-0.9V262z"/>
		</g>
	</g>
	<g>
		<g>
			<path class="st1" d="M185.1,220.1l0.1-35c0,0-0.1-0.1-0.1-0.1c-24.5-18.2-6.5-44.2,26.3-27.9c20.9,10.4,29.4,14.8,50.6,25.6
				l7.7,4.4l42.6-19.7c-25.8-14-99.4-55.4-118.5-56.5c-73.4-4.3-82.6,62.2-37.4,96.1C169.4,216.7,175.5,217.5,185.1,220.1z"/>
			<path class="st1" d="M305.3,238.1l-31.8,9l-0.2,0.1c0,0.2,0,0.4,0,0.6c-1.4,36.7-36.9,34.5-37.5-4.5c-0.3-21.2-0.2-42-0.2-63.2
				l-37.6-18c0,2.7,0.1,22.1,0.1,26.1c-0.1,26.9-1.2,78.7,4.7,91.9c33.2,74.8,108,38.7,103.6-31.1
				C306.2,247.4,305.5,239.8,305.3,238.1z"/>
			<path class="st1" d="M263.4,126.3l33.8,18.4c1.9-0.8,1.2-0.5,2.9-1c32.4-10.3,42.7,22,7.8,37.2c-21.4,9.3-38.3,16.9-60.2,26.1
				l-0.1,33.9l58-17.9c22.4-6.9,42.4-18.8,49-25.9c56.9-60.1-7.3-115.9-70.7-82.5C283.1,115.1,264.2,125.9,263.4,126.3z"/>
		</g>
		<g>
			<path class="st1" d="M114.6,141.5c12.1-4.1,18.5-17.2,14.4-29.3c-4.1-12.1-17.2-18.5-29.3-14.4c-12.1,4.1-18.5,17.2-14.4,29.3
				C89.4,139.2,102.5,145.6,114.6,141.5z"/>
			<path class="st1" d="M379.2,111.3c-4.6,11.9,1.3,25.2,13.2,29.8c11.9,4.6,25.2-1.3,29.8-13.2c4.6-11.9-1.3-25.2-13.2-29.8
				C397.1,93.6,383.8,99.5,379.2,111.3z"/>
		</g>
	</g>
</g>
</svg>
