<?xml version="1.0" encoding="utf-8"?>
<!-- Generator: Adobe Illustrator 25.2.1, SVG Export Plug-In . SVG Version: 6.00 Build 0)  -->
<svg version="1.1" id="Layer_1" xmlns="http://www.w3.org/2000/svg" xmlns:xlink="http://www.w3.org/1999/xlink" x="0px" y="0px"
	 viewBox="0 0 1080 418.2" style="enable-background:new 0 0 1080 418.2;" xml:space="preserve">
<style type="text/css">
	.st0{fill-rule:evenodd;clip-rule:evenodd;fill:#FFFFFF;}
	.st1{fill:#FFFFFF;}
</style>
<g>
	<g>
		<g>
			<path class="st0" d="M230.9,220l0.1-34.9c0,0-0.1-0.1-0.1-0.1c-24.5-18.1-6.5-44.1,26.3-27.8c20.8,10.4,29.4,14.7,50.5,25.6
				l7.7,4.4l42.5-19.7c-25.7-13.9-99.1-55.3-118.2-56.4c-73.2-4.3-82.4,62.1-37.3,95.9C215.3,216.7,221.3,217.5,230.9,220z"/>
			<path class="st0" d="M350.8,238l-31.7,9l-0.2,0.1c0,0.2,0,0.4,0,0.6c-1.4,36.6-36.8,34.4-37.4-4.5c-0.3-21.1-0.2-41.9-0.2-63
				l-37.5-18c0,2.7,0.1,22.1,0.1,26c-0.1,26.8-1.1,78.5,4.7,91.7c33.1,74.7,107.8,38.6,103.3-31C351.7,247.3,351,239.7,350.8,238z"
				/>
			<path class="st0" d="M309,126.5l33.7,18.4c1.9-0.8,1.2-0.5,2.9-1c32.4-10.3,42.6,22,7.8,37.1c-21.4,9.3-38.2,16.9-60.1,26.1
				l-0.1,33.8l57.9-17.8c22.4-6.9,42.3-18.8,48.9-25.8c56.8-60-7.3-115.6-70.5-82.3C328.7,115.3,309.8,126.1,309,126.5z"/>
		</g>
		<g>
			<path class="st0" d="M160.5,141.6c12-4.1,18.4-17.2,14.3-29.2c-4.1-12-17.2-18.4-29.2-14.3c-12,4.1-18.4,17.2-14.3,29.2
				C135.4,139.3,148.5,145.7,160.5,141.6z"/>
			<path class="st0" d="M424.5,111.6c-4.6,11.8,1.3,25.2,13.1,29.8c11.8,4.6,25.2-1.3,29.8-13.1c4.6-11.8-1.3-25.2-13.1-29.8
				C442.4,93.8,429.1,99.7,424.5,111.6z"/>
		</g>
	</g>
	<g>
		<g>
			<path class="st1" d="M581.3,262.2c0-0.4,0.1-0.6,0.4-0.9c0.2-0.2,0.5-0.3,0.9-0.3h28.5c0.3,0,0.6,0.1,0.9,0.3
				c0.3,0.2,0.4,0.5,0.4,0.9v4.7c0,0.4-0.1,0.7-0.3,0.9c-0.2,0.3-0.6,0.4-1,0.4h-10.3V300c0,0.3-0.1,0.6-0.3,0.9
				c-0.2,0.3-0.5,0.4-0.9,0.4h-5.3c-0.3,0-0.6-0.1-0.9-0.4c-0.3-0.2-0.4-0.5-0.4-0.9v-31.7h-10.3c-0.4,0-0.7-0.1-0.9-0.3
				c-0.2-0.2-0.4-0.6-0.4-1V262.2z"/>
			<path class="st1" d="M644.2,281.2c0-1.9,0.2-3.7,0.7-5.5c0.5-1.8,1.2-3.4,2.1-5c0.9-1.5,2-2.9,3.2-4.2c1.3-1.3,2.6-2.3,4.2-3.2
				c1.5-0.9,3.2-1.6,4.9-2.1c1.8-0.5,3.6-0.7,5.5-0.7c1.9,0,3.7,0.2,5.5,0.7c1.8,0.5,3.4,1.2,4.9,2.1c1.5,0.9,2.9,2,4.2,3.2
				c1.3,1.3,2.3,2.7,3.2,4.2c0.9,1.5,1.6,3.2,2.1,5c0.5,1.8,0.7,3.6,0.7,5.5s-0.2,3.7-0.7,5.5c-0.5,1.8-1.2,3.4-2.1,4.9
				c-0.9,1.5-2,2.9-3.2,4.2c-1.3,1.3-2.7,2.3-4.2,3.2c-1.5,0.9-3.2,1.6-4.9,2.1c-1.8,0.5-3.6,0.7-5.5,0.7c-1.9,0-3.7-0.2-5.5-0.7
				c-1.8-0.5-3.4-1.2-4.9-2.1c-1.5-0.9-2.9-2-4.2-3.2c-1.3-1.3-2.3-2.6-3.2-4.2c-0.9-1.5-1.6-3.2-2.1-4.9
				C644.4,284.9,644.2,283.1,644.2,281.2z M652,281.1c0,1.8,0.3,3.5,1,5.1c0.7,1.6,1.6,3,2.7,4.1c1.1,1.2,2.5,2.1,4.1,2.8
				c1.6,0.7,3.3,1,5.1,1c1.8,0,3.5-0.3,5-1c1.6-0.7,2.9-1.6,4.1-2.8c1.2-1.2,2.1-2.6,2.7-4.1c0.7-1.6,1-3.3,1-5.1
				c0-1.8-0.3-3.5-1-5.1c-0.7-1.6-1.6-3-2.7-4.2c-1.2-1.2-2.5-2.1-4.1-2.8c-1.6-0.7-3.2-1-5-1c-1.8,0-3.5,0.3-5.1,1
				c-1.6,0.7-2.9,1.6-4.1,2.8c-1.1,1.2-2,2.6-2.7,4.2C652.3,277.6,652,279.3,652,281.1z"/>
			<path class="st1" d="M719.7,262.2c0-0.3,0.1-0.6,0.3-0.8c0.2-0.2,0.5-0.4,0.9-0.4h5.5c0.1,0,0.3,0,0.4,0.1
				c0.2,0.1,0.3,0.1,0.4,0.2c0.1,0.1,0.2,0.2,0.3,0.4c0.1,0.1,0.1,0.3,0.1,0.5v16.1l15.2-16.4c0.4-0.6,0.8-0.8,1.2-0.8h7.7
				c0.5,0,0.7,0.1,0.7,0.3c0,0.1-0.1,0.3-0.3,0.6l-14.3,16.6l16.7,21.6c0.3,0.4,0.4,0.6,0.4,0.8c0,0.2-0.2,0.3-0.6,0.3h-8.2
				c-0.4,0-0.8-0.3-1.2-0.8l-12.7-16.2l-4.6,4.8v11.1c0,0.8-0.4,1.2-1.3,1.2h-5.5c-0.8,0-1.2-0.4-1.2-1.2V262.2z"/>
			<path class="st1" d="M787.3,262.4c0-0.9,0.4-1.3,1.2-1.3h26.1c0.5,0,0.8,0.1,1,0.4c0.2,0.3,0.3,0.6,0.3,1v4.8
				c0,0.3-0.1,0.6-0.3,0.9c-0.2,0.3-0.6,0.4-1,0.4h-19.2v8.2h14.8c0.4,0,0.6,0,0.9,0.2c0.2,0.2,0.3,0.5,0.3,1v4.9
				c0,0.3-0.1,0.6-0.3,0.9c-0.2,0.3-0.5,0.4-0.9,0.4h-14.9v9.8h19.9c0.5,0,0.8,0.1,1,0.3c0.2,0.2,0.2,0.6,0.2,1v4.9
				c0,0.8-0.4,1.1-1.2,1.1h-26.8c-0.3,0-0.6-0.1-0.8-0.3c-0.2-0.2-0.4-0.5-0.4-0.9V262.4z"/>
			<path class="st1" d="M850,262.3c0-0.3,0.1-0.6,0.3-0.9c0.2-0.2,0.5-0.4,0.9-0.4h6.2c0.3,0,0.5,0.1,0.7,0.2
				c0.2,0.1,0.4,0.3,0.6,0.6c3.1,4.4,6.1,8.8,9.2,13.1c3,4.3,6.1,8.7,9.2,13.1v-25.9c0.1-0.3,0.2-0.6,0.4-0.8
				c0.2-0.2,0.5-0.3,0.8-0.3h5.2c0.4,0,0.7,0.1,0.9,0.3c0.3,0.2,0.4,0.5,0.4,0.9v37.9c0,0.7-0.4,1.1-1.3,1.1h-5.9
				c-0.4,0-0.8-0.2-1.1-0.7c-3.2-4.6-6.3-9.2-9.5-13.8c-3.1-4.6-6.3-9.2-9.5-13.8v27.1c0,0.4-0.1,0.7-0.3,0.9
				c-0.2,0.2-0.5,0.3-1,0.3h-5.2c-0.4,0-0.7-0.1-0.9-0.3c-0.2-0.2-0.3-0.5-0.3-0.9V262.3z"/>
		</g>
		<g>
			<path class="st1" d="M515,153.9c0-0.7,0.2-1.3,0.7-1.7c0.5-0.4,1.1-0.6,1.8-0.6h56.8c0.6,0,1.2,0.2,1.7,0.6
				c0.5,0.4,0.8,1,0.8,1.7V167c0,0.6-0.2,1.2-0.7,1.8c-0.4,0.6-1.1,0.9-1.9,0.9H556v57.8c0,0.6-0.2,1.2-0.7,1.7
				c-0.5,0.5-1.1,0.8-1.8,0.8h-15.5c-0.6,0-1.2-0.2-1.7-0.7c-0.5-0.5-0.8-1.1-0.8-1.8v-57.8h-18.2c-0.7,0-1.3-0.2-1.8-0.7
				c-0.5-0.5-0.7-1.1-0.7-2V153.9z"/>
			<path class="st1" d="M590.9,154c0-0.7,0.2-1.3,0.6-1.8c0.4-0.4,1-0.7,1.7-0.7h34.1c3.6,0,7,0.7,10.2,2c3.2,1.4,5.9,3.2,8.3,5.5
				c2.4,2.3,4.2,5,5.6,8.2c1.4,3.1,2,6.4,2,9.9c0,2.4-0.3,4.7-1,6.8c-0.7,2.2-1.6,4.2-2.7,6.1c-1.2,1.9-2.5,3.6-4.1,5.1
				c-1.6,1.5-3.4,2.8-5.3,3.9l13.6,25.5c0.2,0.5,0.6,1.1,0.9,1.7c0.4,0.7,0.6,1.3,0.6,1.7c0,0.6-0.2,1-0.6,1.3
				c-0.4,0.3-0.9,0.4-1.5,0.4h-18.1c-0.6,0-1.1-0.2-1.6-0.5c-0.5-0.4-0.8-0.8-0.9-1.4l-12.8-24.1h-8.5v23.8c0,1.5-0.8,2.3-2.4,2.3
				h-15.7c-0.7,0-1.3-0.2-1.7-0.6c-0.4-0.4-0.6-0.9-0.6-1.7V154z M632.2,177.4c0-1.1-0.2-2.1-0.6-3.2c-0.4-1.1-0.9-2-1.6-2.9
				c-0.7-0.9-1.5-1.6-2.5-2.2c-1-0.6-2.1-1-3.3-1.2c-1-0.1-1.9-0.1-2.8-0.2c-0.9-0.1-1.8-0.1-2.8-0.1h-7.3v19.4h9.7
				c0.6,0,1.2,0,1.7-0.1c0.5,0,1-0.1,1.6-0.2c1.2-0.1,2.3-0.5,3.3-1.1c1-0.6,1.8-1.3,2.5-2.2c0.7-0.9,1.2-1.8,1.5-2.9
				C632.1,179.6,632.2,178.5,632.2,177.4z"/>
			<path class="st1" d="M686.5,198.7c0,2.6,0.4,4.8,1.1,6.6c0.7,1.8,1.7,3.3,2.9,4.4c1.2,1.1,2.6,2,4.1,2.5c1.6,0.5,3.2,0.8,4.9,0.8
				c1.8,0,3.4-0.3,5-0.9c1.6-0.6,2.9-1.5,4.1-2.7c1.2-1.2,2.1-2.7,2.8-4.5s1-3.9,1-6.2v-44.8c0-0.6,0.2-1.2,0.7-1.6
				c0.4-0.5,1-0.7,1.8-0.7h15.4c0.8,0,1.4,0.2,1.9,0.7c0.5,0.5,0.7,1,0.7,1.6v44.5c0,6.2-0.9,11.3-2.7,15.5
				c-1.8,4.2-4.2,7.6-7.3,10.1c-3.1,2.6-6.6,4.4-10.6,5.5c-4,1.1-8.3,1.7-12.7,1.7c-4.4,0-8.7-0.6-12.7-1.7c-4-1.1-7.6-3-10.7-5.6
				c-3.1-2.6-5.5-6-7.3-10.1c-1.8-4.2-2.7-9.3-2.7-15.3v-44.5c0-0.6,0.2-1.1,0.6-1.6c0.4-0.5,0.9-0.7,1.5-0.7H684
				c0.5,0,1.1,0.2,1.7,0.7c0.6,0.4,0.9,1,0.9,1.7V198.7z"/>
			<path class="st1" d="M749.4,154c0-0.7,0.2-1.3,0.6-1.8c0.4-0.4,1-0.7,1.7-0.7h52.4c0.8,0,1.4,0.2,1.8,0.7
				c0.4,0.5,0.6,1.1,0.6,1.8v13c0,0.6-0.2,1.2-0.6,1.7c-0.4,0.5-1,0.8-1.8,0.8h-34.2v13.1h26.4c0.7,0,1.2,0.2,1.7,0.5
				c0.4,0.3,0.7,0.8,0.7,1.6v11.4c0,0.5-0.2,1-0.6,1.4c-0.4,0.5-0.9,0.7-1.7,0.7h-26.4v13.5h35.5c1.6,0,2.4,0.8,2.4,2.4v13.3
				c0,0.4-0.1,0.7-0.4,0.9c-0.1,1-0.9,1.5-2.2,1.5h-53.4c-0.7,0-1.3-0.2-1.7-0.6c-0.4-0.4-0.6-0.9-0.6-1.7V154z"/>
			<path class="st1" d="M831.8,204.6c0.6,0.5,1.4,1.2,2.3,2c0.9,0.8,2,1.6,3.2,2.5c1.8,1.2,3.6,2.1,5.3,2.8c1.8,0.7,3.6,1,5.5,1
				c1.8,0,3.3-0.2,4.5-0.6s2.2-0.9,2.9-1.6c0.7-0.7,1.2-1.4,1.5-2.3c0.3-0.9,0.4-1.8,0.4-2.8c0-1.1-0.4-2.1-1.2-2.9
				c-0.8-0.9-1.8-1.6-3-2.3c-1.2-0.7-2.4-1.2-3.7-1.7c-1.3-0.5-2.4-0.9-3.4-1.2c-4.2-1.5-7.9-3.1-11.1-4.8c-3.2-1.7-5.8-3.6-7.9-5.7
				c-2.1-2.1-3.7-4.4-4.7-6.9c-1.1-2.5-1.6-5.3-1.6-8.4c0-3.3,0.7-6.2,2-8.9c1.3-2.7,3.2-5,5.6-6.9c2.4-1.9,5.4-3.4,8.8-4.4
				c3.4-1,7.3-1.6,11.6-1.6c3.2,0,6.3,0.4,9.2,1.1c2.9,0.7,5.8,1.9,8.7,3.5c1.2,0.7,2.3,1.4,3.4,2.2c1.1,0.8,2,1.5,2.8,2.2
				c0.8,0.7,1.5,1.4,1.9,2c0.5,0.6,0.7,1.2,0.7,1.6c0,0.5-0.1,0.9-0.3,1.3c-0.2,0.4-0.6,0.8-1,1.3l-8.1,8.6
				c-0.6,0.6-1.2,0.9-1.8,0.9c-0.5,0-0.9-0.1-1.3-0.4c-0.4-0.3-0.9-0.6-1.3-1.1l-0.5-0.4c-0.7-0.6-1.5-1.2-2.3-1.8
				c-0.9-0.6-1.8-1.2-2.8-1.7c-1-0.5-2-0.9-3.1-1.3c-1.1-0.3-2.2-0.5-3.3-0.5c-1.2,0-2.3,0.1-3.3,0.3c-1,0.2-1.9,0.5-2.7,0.9
				c-0.8,0.4-1.4,1-1.8,1.7c-0.5,0.7-0.7,1.5-0.7,2.5c0,1,0.2,1.8,0.7,2.6c0.5,0.7,1.2,1.4,2.2,2c1,0.6,2.2,1.2,3.7,1.7
				c1.5,0.5,3.2,1.1,5.1,1.8c3.7,1.2,7.2,2.5,10.3,3.9c3.1,1.4,5.9,3,8.2,4.8c2.3,1.8,4.1,4.1,5.4,6.6c1.3,2.6,1.9,5.7,1.9,9.3
				c0,3.9-0.8,7.4-2.4,10.5c-1.6,3.1-3.8,5.8-6.5,8c-2.8,2.2-6,3.9-9.7,5.1c-3.7,1.2-7.7,1.8-12,1.8c-4,0-8-0.7-11.9-2.2
				c-3.9-1.4-7.5-3.4-10.9-5.8c-1.4-1-2.6-2-3.6-3c-1-1-1.7-1.8-2.3-2.4l-0.2-0.2c0-0.1-0.1-0.1-0.1-0.1c0,0-0.1,0-0.1-0.1
				c0-0.1-0.1-0.1-0.1-0.1c0,0-0.1,0-0.1-0.1c-0.8-0.9-1.2-1.6-1.2-2.1c0-0.6,0.4-1.3,1.2-2l9.1-8.7c0.7-0.5,1.3-0.8,1.8-0.8
				c0.3,0,0.7,0.1,1,0.3C830.8,203.8,831.3,204.2,831.8,204.6z"/>
			<path class="st1" d="M888.1,153.9c0-0.7,0.2-1.3,0.7-1.7c0.5-0.4,1.1-0.6,1.8-0.6h56.8c0.6,0,1.2,0.2,1.7,0.6
				c0.5,0.4,0.8,1,0.8,1.7V167c0,0.6-0.2,1.2-0.7,1.8c-0.4,0.6-1.1,0.9-1.9,0.9h-18.2v57.8c0,0.6-0.2,1.2-0.7,1.7
				c-0.5,0.5-1.1,0.8-1.8,0.8h-15.5c-0.6,0-1.2-0.2-1.7-0.7c-0.5-0.5-0.8-1.1-0.8-1.8v-57.8h-18.2c-0.7,0-1.3-0.2-1.8-0.7
				c-0.5-0.5-0.7-1.1-0.7-2V153.9z"/>
		</g>
	</g>
</g>
</svg>
